<svg width="32" height="32" viewBox="0 0 32 32" fill="none" xmlns="http://www.w3.org/2000/svg">
<circle cx="16" cy="16" r="16" fill="white"/>
<path d="M22.0164 10.415C20.8944 9.88999 19.6947 9.50847 18.4404 9.29123C18.2863 9.56973 18.1064 9.94431 17.9823 10.2423C16.649 10.0418 15.3279 10.0418 14.0191 10.2423C13.8951 9.94431 13.711 9.56973 13.5556 9.29123C12.3 9.50847 11.0989 9.8914 9.97688 10.4177C7.71376 13.8376 7.10026 17.1725 7.40701 20.4601C8.90803 21.581 10.3627 22.262 11.7928 22.7075C12.1459 22.2216 12.4608 21.705 12.7321 21.1605C12.2154 20.9642 11.7206 20.7219 11.253 20.4406C11.377 20.3487 11.4984 20.2526 11.6156 20.1538C14.4677 21.4877 17.5665 21.4877 20.3845 20.1538C20.5031 20.2526 20.6244 20.3487 20.7471 20.4406C20.2781 20.7233 19.7819 20.9656 19.2652 21.1619C19.5365 21.705 19.8501 22.223 20.2045 22.7089C21.636 22.2633 23.092 21.5824 24.5931 20.4601C24.953 16.649 23.9782 13.3447 22.0164 10.415ZM13.1207 18.4383C12.2645 18.4383 11.5624 17.639 11.5624 16.6657C11.5624 15.6924 12.2495 14.8917 13.1207 14.8917C13.9919 14.8917 14.694 15.6909 14.679 16.6657C14.6803 17.639 13.9919 18.4383 13.1207 18.4383ZM18.8794 18.4383C18.0232 18.4383 17.3211 17.639 17.3211 16.6657C17.3211 15.6924 18.0082 14.8917 18.8794 14.8917C19.7505 14.8917 20.4527 15.6909 20.4377 16.6657C20.4377 17.639 19.7505 18.4383 18.8794 18.4383Z" fill="black"/>
</svg>
