<svg width="32" height="32" viewBox="0 0 32 32" fill="none" xmlns="http://www.w3.org/2000/svg">
<circle cx="16" cy="16" r="16" fill="white"/>
<path d="M7.77731 17.1931L7.84265 17.0905L11.7813 10.9289C11.8389 10.8387 11.9742 10.8481 12.0177 10.946C12.6758 12.4207 13.2435 14.2547 12.9775 15.3965C12.864 15.8663 12.5529 16.5025 12.2029 17.0905C12.1577 17.1761 12.108 17.2601 12.0551 17.341C12.0302 17.3783 11.9882 17.4001 11.9431 17.4001H7.89241C7.78353 17.4001 7.71977 17.2818 7.77731 17.1931Z" fill="black"/>
<path d="M25.3333 18.3381V19.3134C25.3333 19.3694 25.2991 19.4192 25.2493 19.441C24.9444 19.5716 23.9006 20.0507 23.4666 20.6543C22.3591 22.1958 21.5129 24.4001 19.6213 24.4001H11.73C8.93307 24.4001 6.66663 22.1259 6.66663 19.3196V19.2294C6.66663 19.1547 6.72729 19.0941 6.80198 19.0941H11.2011C11.2882 19.0941 11.352 19.1749 11.3442 19.2605C11.3131 19.5467 11.366 19.8392 11.5013 20.1052C11.7626 20.6356 12.304 20.967 12.8889 20.967H15.0666V19.2667H12.9137C12.8033 19.2667 12.738 19.1392 12.8018 19.0489C12.8251 19.0132 12.8515 18.9758 12.8795 18.9338C13.0833 18.6445 13.3742 18.1949 13.6635 17.6832C13.8611 17.3379 14.0524 16.9692 14.2064 16.599C14.2375 16.5321 14.2624 16.4636 14.2873 16.3967C14.3293 16.2785 14.3729 16.1681 14.404 16.0576C14.4351 15.9643 14.46 15.8663 14.4849 15.7745C14.558 15.4603 14.5891 15.1274 14.5891 14.7821C14.5891 14.6467 14.5829 14.5052 14.5704 14.3698C14.5642 14.2221 14.5455 14.0743 14.5268 13.9265C14.5144 13.7958 14.4911 13.6667 14.4662 13.5314C14.4351 13.3338 14.3915 13.1379 14.3417 12.9403L14.3246 12.8656C14.2873 12.7303 14.2562 12.6012 14.2126 12.4658C14.0898 12.0412 13.9482 11.6274 13.7989 11.2401C13.7444 11.0861 13.6822 10.9383 13.62 10.7905C13.5282 10.5681 13.4348 10.3658 13.3493 10.1745C13.3057 10.0874 13.2684 10.0081 13.2311 9.92718C13.1891 9.83539 13.1455 9.74364 13.102 9.6565C13.0709 9.58961 13.0351 9.5274 13.0102 9.46519L12.7442 8.97362C12.7068 8.90673 12.7691 8.8274 12.8422 8.84762L14.5066 9.29874H14.5113C14.5144 9.29874 14.516 9.30029 14.5175 9.30029L14.7369 9.36095L14.978 9.42939L15.0666 9.45428V8.46497C15.0666 7.9874 15.4493 7.60007 15.9222 7.60007C16.1586 7.60007 16.3733 7.6965 16.5273 7.85362C16.6813 8.01075 16.7778 8.22541 16.7778 8.46497V9.9334L16.9551 9.98316C16.9691 9.98784 16.9831 9.99406 16.9955 10.0034C17.0391 10.0361 17.1013 10.0843 17.1806 10.1434C17.2429 10.1932 17.3098 10.2538 17.3906 10.3161C17.5509 10.4452 17.7422 10.6116 17.9522 10.8029C18.0082 10.8512 18.0626 10.901 18.1124 10.9507C18.3831 11.2027 18.6864 11.4983 18.9758 11.825C19.0566 11.9167 19.136 12.0101 19.2169 12.1081C19.2978 12.2076 19.3833 12.3056 19.458 12.4036C19.556 12.5343 19.6617 12.6696 19.7535 12.8112C19.7971 12.8781 19.8468 12.9465 19.8889 13.0134C20.0071 13.1923 20.1113 13.3774 20.2109 13.5625C20.2529 13.6481 20.2964 13.7414 20.3337 13.8332C20.4442 14.0805 20.5313 14.3325 20.5873 14.5845C20.6044 14.639 20.6169 14.6981 20.6231 14.751V14.7634C20.6417 14.8381 20.648 14.9174 20.6542 14.9983C20.6791 15.2565 20.6666 15.5147 20.6106 15.7745C20.5873 15.885 20.5562 15.9892 20.5189 16.0996C20.4815 16.2054 20.4442 16.3158 20.396 16.4201C20.3026 16.6363 20.1922 16.8525 20.0615 17.0547C20.0195 17.1294 19.9698 17.2087 19.92 17.2834C19.8655 17.3627 19.8095 17.4374 19.7597 17.5105C19.6913 17.6039 19.6182 17.7018 19.5435 17.7889C19.4766 17.8807 19.4082 17.9725 19.3335 18.0534C19.2293 18.1763 19.1298 18.293 19.0255 18.405C18.9633 18.4781 18.8964 18.5527 18.828 18.6196C18.7611 18.6943 18.6926 18.7612 18.6304 18.8234C18.5262 18.9276 18.4391 19.0085 18.366 19.0754L18.1948 19.2325C18.17 19.2543 18.1373 19.2667 18.1031 19.2667H16.7778V20.967H18.4453C18.8186 20.967 19.1733 20.8347 19.4595 20.5921C19.5575 20.5065 19.9853 20.1363 20.4909 19.5779C20.508 19.5592 20.5298 19.5452 20.5546 19.539L25.1606 18.2074C25.2462 18.1825 25.3333 18.2478 25.3333 18.3381Z" fill="black"/>
</svg>
