<svg width="32" height="32" viewBox="0 0 32 32" fill="none" xmlns="http://www.w3.org/2000/svg">
<circle cx="16" cy="16" r="16" fill="white"/>
<path d="M23.4223 12.1921C23.4337 12.3566 23.4337 12.5212 23.4337 12.6873C23.4337 17.7477 19.5813 23.5839 12.537 23.5839V23.5809C10.4561 23.5839 8.41843 22.9879 6.66666 21.864C6.96924 21.9004 7.27333 21.9186 7.57819 21.9194C9.30266 21.9209 10.9778 21.3423 12.3345 20.2768C10.6957 20.2457 9.25868 19.1772 8.75666 17.6173C9.33072 17.728 9.92223 17.7052 10.4857 17.5513C8.69902 17.1903 7.41363 15.6206 7.41363 13.7975C7.41363 13.7808 7.41363 13.7649 7.41363 13.749C7.94598 14.0455 8.54204 14.21 9.15175 14.2282C7.46899 13.1036 6.95028 10.865 7.96646 9.11471C9.91086 11.5073 12.7797 12.9618 15.8593 13.1157C15.5507 11.7856 15.9723 10.3918 16.9673 9.45673C18.5097 8.00677 20.9357 8.08109 22.3856 9.6228C23.2433 9.45369 24.0654 9.13898 24.8177 8.69307C24.5318 9.57958 23.9334 10.3326 23.1341 10.8111C23.8932 10.7216 24.6349 10.5184 25.3333 10.2082C24.8192 10.9787 24.1715 11.6499 23.4223 12.1921Z" fill="black"/>
</svg>
